<svg width="367" height="122" viewBox="0 0 367 122" fill="none" xmlns="http://www.w3.org/2000/svg">
<path d="M37.2 95.1066C34.4 95.1066 33 93.7066 33 90.9066V31.5066C33 28.7066 34.4 27.3066 37.2 27.3066H74C75.3 27.3066 76.3167 27.6899 77.05 28.4566C77.8167 29.1899 78.2 30.2066 78.2 31.5066C78.2 34.3066 76.8 35.7066 74 35.7066H43.4C42.2954 35.7066 41.4 36.602 41.4 37.7066V54.7066C41.4 55.8112 42.2954 56.7066 43.4 56.7066H61.5C64.3 56.7066 65.7 58.1066 65.7 60.9066C65.7 63.7066 64.3 65.1066 61.5 65.1066H43.4C42.2954 65.1066 41.4 66.002 41.4 67.1066V90.9066C41.4 93.7066 40 95.1066 37.2 95.1066Z" fill="#0D4AFF"/>
<path d="M92.7664 95.1066C89.9664 95.1066 88.5664 93.7066 88.5664 90.9066V31.5066C88.5664 28.7066 89.9664 27.3066 92.7664 27.3066C95.5664 27.3066 96.9664 28.7066 96.9664 31.5066V84.7066C96.9664 85.8112 97.8618 86.7066 98.9664 86.7066H124.666C127.466 86.7066 128.866 88.1066 128.866 90.9066C128.866 93.7066 127.466 95.1066 124.666 95.1066H92.7664Z" fill="#0D4AFF"/>
<path d="M164.568 95.1066C156.935 95.1066 151.285 93.2899 147.618 89.6566C143.985 85.9899 142.168 80.3399 142.168 72.7066V31.5066C142.168 30.1066 142.518 29.0566 143.218 28.3566C143.918 27.6566 144.968 27.3066 146.368 27.3066C147.768 27.3066 148.818 27.6566 149.518 28.3566C150.218 29.0566 150.568 30.1066 150.568 31.5066V72.7066C150.568 76.2733 150.985 79.0733 151.818 81.1066C152.685 83.1399 154.135 84.5899 156.168 85.4566C158.201 86.2899 161.001 86.7066 164.568 86.7066H176.568C180.135 86.7066 182.935 86.2899 184.968 85.4566C187.001 84.5899 188.435 83.1399 189.268 81.1066C190.135 79.0733 190.568 76.2733 190.568 72.7066V31.5066C190.568 30.1066 190.918 29.0566 191.618 28.3566C192.318 27.6566 193.368 27.3066 194.768 27.3066C196.168 27.3066 197.218 27.6566 197.918 28.3566C198.618 29.0566 198.968 30.1066 198.968 31.5066V72.7066C198.968 80.3399 197.151 85.9899 193.518 89.6566C189.885 93.2899 184.235 95.1066 176.568 95.1066H164.568Z" fill="#0D4AFF"/>
<path d="M217.43 94.2066C215.197 92.6733 214.864 90.7066 216.43 88.3066L233.952 62.4548C234.42 61.7642 234.411 60.8557 233.928 60.1753L215.43 34.1066C213.93 31.9066 214.297 29.9399 216.53 28.2066C218.83 26.6399 220.764 27.0066 222.33 29.3066L238.607 52.1296C239.403 53.2462 241.061 53.2483 241.86 52.1339L258.23 29.3066C259.964 27.0733 261.897 26.7733 264.03 28.4066C266.297 30.0733 266.63 32.0066 265.03 34.2066L246.165 60.4459C245.666 61.1402 245.663 62.0749 246.158 62.7719L264.23 88.2066C265.797 90.5066 265.43 92.5066 263.13 94.2066C260.83 95.7733 258.897 95.4066 257.33 93.1066L241.603 70.9618C240.794 69.8226 239.096 69.843 238.315 71.0011L223.33 93.2066C221.797 95.3733 219.83 95.7066 217.43 94.2066Z" fill="#0D4AFF"/>
<path d="M299.875 95.1066C292.242 95.1066 286.592 93.2899 282.925 89.6566C279.292 85.9899 277.475 80.3399 277.475 72.7066V49.6066C277.475 41.9066 279.308 36.2566 282.975 32.6566C286.642 29.0233 292.275 27.2399 299.875 27.3066H311.875C319.542 27.3066 325.192 29.1233 328.825 32.7566C332.135 36.0664 333.937 41.0497 334.232 47.7065C334.281 48.81 333.38 49.7066 332.275 49.7066H327.875C326.77 49.7066 325.883 48.81 325.825 47.707C325.688 45.1064 325.271 42.9896 324.575 41.3566C323.742 39.3233 322.308 37.8733 320.275 37.0066C318.242 36.1399 315.442 35.7066 311.875 35.7066H299.875C296.342 35.6733 293.558 36.0733 291.525 36.9066C289.492 37.7399 288.042 39.1733 287.175 41.2066C286.308 43.2399 285.875 46.0399 285.875 49.6066V72.7066C285.875 76.2733 286.292 79.0733 287.125 81.1066C287.992 83.1399 289.442 84.5899 291.475 85.4566C293.508 86.2899 296.308 86.7066 299.875 86.7066H311.875C315.442 86.7066 318.242 86.2899 320.275 85.4566C322.308 84.5899 323.742 83.1399 324.575 81.1066C325.273 79.4699 325.689 77.3364 325.826 74.7062C325.883 73.6031 326.77 72.7066 327.875 72.7066H332.275C333.38 72.7066 334.281 73.6032 334.231 74.7066C333.936 81.3345 332.133 86.3178 328.825 89.6566C325.192 93.2899 319.542 95.1066 311.875 95.1066H299.875Z" fill="#0DFFB0"/>
<path d="M325.6 61.1066C325.6 58.1066 326.6 56.1066 330.201 56.1066C333.802 56.1066 334.6 58.1066 334.6 61.1066C334.6 64.1066 333.802 66.1066 330.201 66.1066C326.6 66.1066 325.6 64.1066 325.6 61.1066Z" fill="#0DFFB0"/>
<path d="M307.6 80.1066C307.6 79.002 308.495 78.1066 309.6 78.1066H318.6C319.705 78.1066 320.6 79.002 320.6 80.1066C320.6 81.2112 319.705 82.1066 318.6 82.1066H309.6C308.495 82.1066 307.6 81.2112 307.6 80.1066Z" fill="#0DFFB0"/>
<path d="M307.6 71.1066C307.6 70.002 308.495 69.1066 309.6 69.1066H318.6C319.705 69.1066 320.6 70.002 320.6 71.1066C320.6 72.2112 319.705 73.1066 318.6 73.1066H314.1H309.6C308.495 73.1066 307.6 72.2112 307.6 71.1066Z" fill="#0DFFB0"/>
<path fill-rule="evenodd" clip-rule="evenodd" d="M56.7438 43.3021C58.8176 43.3591 62.07 43.5284 63.9746 43.7352C65.844 43.9061 69.2831 44.3456 71.5787 44.7085C73.9096 45.1073 78.1642 46.0138 81.0622 46.7478C82.9838 47.2344 85.854 48.0666 88.5 48.8962V53.5744C85.9916 52.494 82.9784 51.2638 81.1589 50.5457C78.8829 49.68 75.3843 48.4562 73.4024 47.8491C71.4082 47.2698 67.6082 46.2624 64.9233 45.6244C62.8953 45.1425 60.2361 44.5697 56.6837 43.8995C56.3312 43.8329 56.3851 43.2941 56.7438 43.3021ZM97 57.4742V51.8617C99.3573 52.7555 101.77 53.7143 103.479 54.4535C106.453 55.7066 110.68 57.591 112.87 58.6505C115.072 59.6822 119.83 61.9849 123.404 63.7278C126.978 65.4707 131.131 67.5211 132.634 68.2844C134.149 69.0199 138.34 70.9874 141.951 72.6473C145.562 74.3072 150.572 76.5041 153.084 77.5294C155.596 78.5546 159.947 80.1625 162.746 81.1178C165.545 82.073 170.103 83.4482 172.881 84.2212C175.321 84.8711 177.527 85.3675 182.462 86.201C179.037 86.7929 176.773 86.8731 172.306 86.7044C171.628 86.5944 170.909 86.4743 170.142 86.3431C165.182 85.5244 161.118 84.6504 157.746 83.7163C154.968 82.9432 151.027 81.7927 148.927 81.1059C146.827 80.4191 143.554 79.2637 141.634 78.5183C139.701 77.8007 136.194 76.3669 133.825 75.3661C131.456 74.3653 126.932 72.3409 123.795 70.8811C120.67 69.3937 114.256 66.2122 109.535 63.8266C106.136 62.0844 102.49 60.2379 100.129 59.042C99.2192 58.5812 98.5001 58.217 98.0592 57.9925C97.7628 57.8445 97.4043 57.6692 97 57.4742Z" fill="#0DFFB0"/>
<path fill-rule="evenodd" clip-rule="evenodd" d="M264.871 61.6677C266.117 60.4815 267.293 59.2237 267.513 58.8446C267.734 58.4654 267.629 59.0431 267.243 60.1382C266.857 61.2333 265.864 62.9988 265.072 64.0842C264.233 65.1614 262.607 66.9676 261.398 68.0708C260.189 69.174 257.643 71.0908 255.669 72.3014C253.695 73.512 250.341 75.2904 248.133 76.2228C245.972 77.1632 242.962 78.2859 241.442 78.7106C239.956 79.171 236.617 79.9992 234.021 80.5377C231.461 81.112 227.158 81.8051 224.53 82.0702C221.891 82.363 217.808 82.6769 215.518 82.7615C213.227 82.846 209.197 82.8117 206.588 82.6928C204.432 82.5934 201.182 82.2728 197.857 81.8546L198.92 74.8539C199.376 74.9361 199.823 75.0147 200.254 75.0885C204.738 75.8258 208.285 76.2539 211.93 76.4607C214.837 76.6007 219.535 76.6302 222.398 76.5245C225.273 76.3912 229.536 76.0187 231.938 75.6852C234.292 75.3436 238.202 74.6131 240.62 74.0143C243.025 73.4433 246.847 72.2213 249.103 71.2972C251.394 70.4088 254.432 68.9932 255.923 68.1763C257.367 67.3514 259.486 66.0464 260.607 65.2556C261.68 64.4567 263.624 62.8539 264.871 61.6677ZM190.57 73.1372C190.425 73.1016 190.289 73.0673 190.163 73.0346C188.144 72.5106 183.682 71.1517 180.253 69.9995C176.825 68.8473 171.727 66.9628 168.907 65.8252C166.147 64.6682 161.811 62.7951 159.254 61.6429C157.79 60.976 156.046 60.1597 154.516 59.4443C153.423 58.9326 152.439 58.4724 151.748 58.1555C150.09 57.3955 145.45 55.1726 141.415 53.2018C137.367 51.2588 131.732 48.6273 128.925 47.3434C126.107 46.087 121.368 44.0854 118.37 42.8876C115.372 41.6899 110.735 40.0332 108.007 39.1495C105.265 38.2935 101.325 37.1429 99.1629 36.5945C98.5543 36.4487 97.8115 36.2799 97 36.1027V42.6574C98.174 43.0581 99.3459 43.4699 100.292 43.8145C102.45 44.6006 106.857 46.4265 110.019 47.8309C113.181 49.2353 118.117 51.5982 120.992 53.0726C123.867 54.5469 128.658 57.0042 131.615 58.5225C134.181 59.8399 137.167 61.341 138.731 62.1277L139.341 62.4347C140.595 63.0661 144.312 64.8334 147.568 66.3729C150.823 67.9124 156.141 70.2216 159.352 71.5153C162.576 72.7814 167.627 74.6578 170.569 75.6375C173.511 76.6172 178.496 78.0656 181.667 78.8761C184.339 79.5615 186.745 80.092 189.5 80.5883C190.237 78.3354 190.503 76.7257 190.57 73.1372ZM88.5 34.5016V40.1999C86.6693 39.7694 84.6115 39.315 82.7561 38.9387C78.4292 38.0794 74.1233 37.4023 71.0277 37.1109C68.325 36.857 63.7511 36.5509 60.8192 36.4662C57.8874 36.3815 53.7627 36.3309 51.6271 36.4122C49.504 36.4658 45.0637 36.7781 41.8391 37.1197C38.567 37.4532 35.2454 37.8973 34.3609 38.0437C33.74 38.1583 33.1589 38.247 32.852 38.2526C32.7091 38.2553 32.6542 38.1655 32.783 38.1035C33.0518 37.9743 33.6398 37.7663 34.3206 37.5604C35.1044 37.3402 36.5237 36.9651 37.8448 36.616C38.3 36.4958 38.7436 36.3785 39.1455 36.2718C40.7491 35.8911 43.5368 35.2663 45.3783 34.9263C47.2197 34.5863 50.9835 34.0689 53.683 33.7566C56.4177 33.4801 60.2378 33.1808 62.1707 33.0946C64.1635 32.9889 67.9077 32.9744 70.5418 33.038C73.1882 33.0738 77.6916 33.3083 80.5494 33.559C82.7703 33.7538 85.9604 34.1325 88.5 34.5016Z" fill="#0DFFB0"/>
<path fill-rule="evenodd" clip-rule="evenodd" d="M255.27 44.7507C254.615 46.2168 253.257 48.4558 252.284 49.7185C251.299 51.0089 249.71 52.7321 248.719 53.5749C247.764 54.4536 245.642 55.9962 244.052 57.0343C242.462 58.0724 239.78 59.6084 238.109 60.4838C236.403 61.3234 232.947 62.7569 230.406 63.6322C227.864 64.5076 223.924 65.6498 221.579 66.2013C219.246 66.7252 215.383 67.4638 212.957 67.8527C210.53 68.2415 205.813 68.7149 202.495 68.9214C201.323 68.9944 200.102 69.0741 198.962 69.1522L198.975 70.7744C206.087 71.8141 208.417 71.9887 211.342 72.0427C213.989 72.0786 217.71 72.0007 219.62 71.851C221.53 71.7014 224.959 71.2459 227.23 70.8603C229.514 70.4471 233.368 69.4985 235.752 68.7452C238.184 68 241.688 66.5747 243.61 65.5935C245.486 64.6042 247.675 63.3708 248.422 62.8437C249.169 62.3165 250.678 61.1156 251.731 60.1344C252.831 59.1614 254.446 57.2641 255.361 55.9021C256.519 54.2245 257.198 52.703 257.569 51.0693C257.887 49.7838 258.082 47.9711 258.024 47.068C257.967 46.1649 257.715 44.6629 257.455 43.7549C257.182 42.8746 256.86 42.1049 256.718 42.0804C256.575 42.056 255.937 43.2569 255.282 44.723L255.27 44.7507Z" fill="#0DFFB0"/>
</svg>
