<svg width="206" height="123" viewBox="0 0 206 123" fill="none" xmlns="http://www.w3.org/2000/svg">
<path d="M166.957 50.2265C167.56 48.9625 168.401 46.7212 168.807 45.2536L168.814 45.2259C169.22 43.7583 169.616 42.5563 169.704 42.5807C169.792 42.6051 169.992 43.3756 170.161 44.2568C170.322 45.1658 170.478 46.6692 170.514 47.5732C170.549 48.4773 170.429 50.2918 170.232 51.5786C170.002 53.214 169.581 54.737 168.863 56.4163C168.296 57.7796 167.295 59.6788 166.614 60.6529C165.961 61.635 165.026 62.8371 164.563 63.3648C164.1 63.8926 162.744 65.1272 161.582 66.1175C160.39 67.0996 158.219 68.5264 156.712 69.2723C155.234 70.0264 152.846 70.9759 151.431 71.3896C150.023 71.7755 147.898 72.2315 146.715 72.3813C145.531 72.5311 143.225 72.6091 141.585 72.5732C139.421 72.5086 137.783 72.2721 131.003 70.5959C130.704 70.5222 130.718 70.0932 131.021 70.0413C131.754 69.916 134.047 69.6555 136.103 69.4487C138.159 69.242 141.082 68.7681 142.586 68.3789C144.089 67.9897 146.483 67.2503 147.929 66.7259C149.382 66.1738 151.824 65.0305 153.399 64.1542C154.973 63.278 157.115 61.843 158.172 61.0026C159.208 60.1263 160.87 58.5888 161.855 57.5496C162.84 56.5104 164.155 54.9663 164.747 54.0868C165.361 53.2431 166.346 51.5181 166.957 50.2265Z" fill="#EAEAEA"/>
<path d="M174.756 62.1877C175.529 61.0003 176.257 59.7412 176.394 59.3617C176.53 58.9822 176.466 59.5604 176.226 60.6567C175.987 61.7529 175.372 63.5202 174.881 64.6066C174.361 65.6849 173.354 67.4929 172.604 68.5972C171.855 69.7016 170.278 71.6203 169.054 72.8321C167.831 74.0439 165.753 75.8242 164.384 76.7574C163.045 77.6988 161.18 78.8227 160.238 79.2477C159.317 79.7087 157.248 80.5376 155.639 81.0767C154.052 81.6516 151.386 82.3454 149.758 82.6108C148.122 82.9039 145.592 83.2181 144.173 83.3027C142.753 83.3874 140.256 83.353 138.639 83.234C136.867 83.102 133.902 82.5806 131.218 81.9582C127.974 81.181 125.787 80.487 123.196 79.4134C121.231 78.6021 118.141 77.1523 116.318 76.1716C114.495 75.1909 111.365 73.3126 109.368 72.0453C107.378 70.7502 104.082 68.4386 102.065 66.8976C100.047 65.3566 97.7441 63.5875 96.9669 62.9555C96.1897 62.3234 94.012 60.5592 92.1793 59.0394C90.3465 57.5195 87.3774 55.0598 85.596 53.5839C83.8145 52.108 80.7559 49.7428 78.7964 48.3369C76.837 46.9311 74.1057 45.1033 72.7685 44.3165C71.4312 43.5297 69.3657 42.3926 68.2184 41.8371C67.071 41.2816 64.2292 40.1983 61.9016 39.4358C59.2202 38.5756 56.5519 37.8978 54.6336 37.6062C52.9588 37.352 50.1244 37.0456 48.3076 36.9608C46.4907 36.876 43.9347 36.8253 42.6113 36.9067C41.2956 36.9604 38.544 37.273 36.5457 37.6149C34.518 37.9487 32.4597 38.3933 31.9116 38.5399C31.597 38.6337 31.2989 38.7102 31.0967 38.738C30.9273 38.7613 30.8675 38.6426 31.0083 38.5457C31.1958 38.4165 31.5194 38.2354 31.8866 38.0561C32.5396 37.7597 33.9047 37.1831 34.8766 36.7662C35.8703 36.3851 37.5978 35.7597 38.7389 35.4193C39.88 35.079 42.2124 34.5611 43.8853 34.2485C45.58 33.9716 47.9472 33.6721 49.145 33.5858C50.38 33.48 52.7002 33.4655 54.3325 33.5291C55.9725 33.565 58.7632 33.7997 60.5341 34.0507C62.3051 34.3016 65.0706 34.8572 66.6919 35.3053C68.3132 35.7533 70.7215 36.5679 72.0687 37.0892C73.4083 37.6382 75.8504 38.7899 77.5491 39.6468C79.2401 40.5314 82.1133 42.1897 83.9713 43.3887C85.8293 44.5876 88.7658 46.5913 90.5123 47.8489C92.2513 49.1342 95.7433 51.7683 98.2518 53.7133C100.753 55.686 103.628 57.9112 104.655 58.6719C105.682 59.4327 107.751 61.0177 109.306 62.1629C110.891 63.3162 113.578 65.1912 115.288 66.3494C117.036 67.4881 120.195 69.3745 122.32 70.5279C124.444 71.6812 127.209 73.0415 128.461 73.5661C129.712 74.0906 132.533 75.0193 134.714 75.6221C137.493 76.3601 139.69 76.7886 141.949 76.9956C143.751 77.1358 146.662 77.1653 148.436 77.0595C150.218 76.926 152.86 76.5532 154.348 76.2193C155.807 75.8773 158.23 75.1461 159.728 74.5468C161.219 73.9751 163.587 72.752 164.985 71.8269C166.405 70.9376 168.288 69.5205 169.212 68.7029C170.106 67.8771 171.419 66.5708 172.114 65.7792C172.779 64.9795 173.984 63.3751 174.756 62.1877Z" fill="#EAEAEA"/>
<path d="M45.782 43.8035C47.0671 43.8606 49.0827 44.0301 50.2629 44.2371C51.4213 44.4082 53.5525 44.8481 54.9751 45.2114C56.4195 45.6106 59.0561 46.518 60.852 47.2527C62.6478 47.9874 65.781 49.509 67.758 50.6216C69.7645 51.7424 72.9084 53.6842 74.7435 54.9662C76.5861 56.2205 79.206 58.1069 80.5628 59.1674C81.9273 60.2002 84.8757 62.5052 87.0905 64.2499C89.3054 65.9945 91.8793 68.047 92.8104 68.811C93.7492 69.5473 96.3461 71.5168 98.5839 73.1784C100.822 74.8399 103.926 77.0391 105.483 78.0654C107.04 79.0916 109.736 80.7011 111.471 81.6574C113.205 82.6136 116.03 83.9902 117.751 84.764C119.907 85.6913 121.767 86.3065 128.653 88.0323C128.939 88.104 128.901 88.5257 128.606 88.5387C127.646 88.5712 125.444 88.4994 123.731 88.3837C121.368 88.2076 119.503 87.841 116.054 86.8879C112.98 86.0684 110.462 85.1936 108.372 84.2585C106.651 83.4847 104.208 82.3329 102.907 81.6455C101.606 80.958 99.5775 79.8014 98.3876 79.0553C97.1901 78.3369 95.0167 76.9018 93.5484 75.8999C92.0802 74.8981 89.2769 72.8716 87.3328 71.4104C85.3963 69.9215 81.4219 66.7368 78.4964 64.3487C75.5786 61.933 72.3672 59.3168 71.3848 58.5088C70.3729 57.6927 68.1941 56.0474 66.5283 54.842C64.8625 53.6365 62.3146 51.9488 60.9119 51.0545C59.5014 50.1879 57.3334 48.9628 56.1052 48.3552C54.8694 47.7752 52.5146 46.7668 50.8508 46.1282C49.5834 45.6417 47.918 45.0626 45.6883 44.3843C45.3647 44.2859 45.444 43.7914 45.782 43.8035Z" fill="#EAEAEA"/>
</svg>
